<svg width="155" height="140" viewBox="0 0 155 140" fill="none" xmlns="http://www.w3.org/2000/svg">
<g clip-path="url(#clip0)">
<path fill-rule="evenodd" clip-rule="evenodd" d="M55.7031 0C59.6427 41.9358 19.375 56.3733 19.375 93.31C19.375 118.399 39.1956 139.813 77.5 140C115.804 140.187 135.625 114.252 135.625 87.7567C135.625 63.6008 122.308 40.8217 97.185 26.6583C103.153 41.8658 95.2088 55.755 87.491 60.5383C87.9431 41.0725 80.2254 12.1858 55.7031 0ZM86.1283 75.8333C110.379 99.1025 95.4865 128.333 76.0081 128.333C64.1571 128.333 58.0604 120.954 58.125 113.301C58.2477 99.1083 75.8015 99.0967 86.1283 75.8333V75.8333Z" fill="#D74F4F"/>
</g>
<defs>
<clipPath id="clip0">
<rect width="155" height="140" fill="white"/>
</clipPath>
</defs>
</svg>
